<?xml version="1.0" encoding="UTF-8" standalone="no"?>
<svg width="155px" height="116px" viewBox="0 0 155 116" version="1.1" xmlns="http://www.w3.org/2000/svg" xmlns:xlink="http://www.w3.org/1999/xlink" xmlns:sketch="http://www.bohemiancoding.com/sketch/ns">
    <!-- Generator: Sketch 3.5.2 (25235) - http://www.bohemiancoding.com/sketch -->
    <title>Imported Layers</title>
    <desc>Created with Sketch.</desc>
    <defs></defs>
    <g id="yes" stroke="none" stroke-width="1" fill="none" fill-rule="evenodd" sketch:type="MSPage">
        <g id="step-2-copy" sketch:type="MSArtboardGroup" transform="translate(-443.000000, -196.000000)">
            <g id="step-2" sketch:type="MSLayerGroup" transform="translate(443.000000, 196.000000)">
                <g id="Imported-Layers" sketch:type="MSShapeGroup">
                    <path d="M91.3024699,70.5414242 C91.3024699,86.968982 78.0574398,100.285274 61.7189458,100.285274 L29.6320783,100.285274 C13.2926506,100.285274 0.0485542169,86.968982 0.0485542169,70.5414242 L0.0485542169,63.1002982 C0.0485542169,46.6718015 13.2926506,33.3545705 29.6320783,33.3545705 L61.7189458,33.3545705 C78.0574398,33.3545705 91.3024699,46.6718015 91.3024699,63.1002982 L91.3024699,70.5414242" id="Fill-1" fill="#8ED0D8"></path>
                    <path d="M28.227741,94.0580487 L28.8458735,115.584365 L40.6566867,94.3894539 L28.227741,94.0580487" id="Fill-2" fill="#8ED0D8"></path>
                    <path d="M125.981386,66.0538412 L125.284819,102.521555 L106.375753,70.6672267 L125.981386,66.0538412" id="Fill-3" fill="#59A1B1"></path>
                    <path d="M43.9695783,29.8048736 C43.9695783,13.3754381 57.2136747,0.0600847926 73.5531024,0.0600847926 L124.963614,0.0600847926 C141.303042,0.0600847926 154.549006,13.3754381 154.549006,29.8048736 L154.549006,51.767743 C154.549006,68.1953008 141.303042,81.5125318 124.963614,81.5125318 L73.5531024,81.5125318 C57.2136747,81.5125318 43.9695783,68.1953008 43.9695783,51.767743 L43.9695783,29.8048736" id="Fill-4" fill="#59A1B1"></path>
                </g>
            </g>
        </g>
    </g>
</svg>
